# xmcd CD database file
#
# Track frame offsets:
#	150
#	17225
#	33065
#	46715
#	64867
#	82215
#	106770
#	127859
#	144865
#	160723
#	179098
#	197894
#
# Disc length: 2880 seconds
#
# Revision: 4
# Processed by: cddbd v1.5.2PL0 Copyright (c) Steve Scherf et al.
# Submitted via: CDex 1.70beta3
#
DISCID=970b3e0c
DTITLE=Faith Nation - Ordinary People
DYEAR=2000
DGENRE=Melodic Hard Rock
TTITLE0=Free
TTITLE1=Arms Around The World
TTITLE2=Make It Simple
TTITLE3=Don't Leave Me
TTITLE4=Now How Can !?
TTITLE5=Love Is An Ocean
TTITLE6=Ordinary People
TTITLE7=On The Water
TTITLE8=WhenThe Love Goes Away
TTITLE9=Hold On
TTITLE10=All That I Am
TTITLE11=Lean On Me
EXTD=YEAR: 2000
EXTT0=
EXTT1=
EXTT2=
EXTT3=
EXTT4=
EXTT5=
EXTT6=
EXTT7=
EXTT8=
EXTT9=
EXTT10=
EXTT11=
PLAYORDER=
